Coordinates
version=1
nRows=32
nColumns=12
inDegrees=yes

Units are S.I. units (second, meters, Newtons, ...)
Angles are in degrees

endheader
time	SC_y	SC_z	SC_x	AC_y	AC_z	AC_x	GH_y	GH_z	GH_yy	EL_x	PS_y
       0.0              -44.09          8.635          67.44          62.32         -8.608         -13.14         -118.7         -2.614         -129.2          19.99          10.55
   0.01589              -44.09          8.638          67.43          62.32         -8.609         -13.13         -118.6          -2.61         -129.2           20.0          10.56
   0.03178              -44.09          8.642          67.43          62.32          -8.61         -13.13         -118.6         -2.605         -129.2          20.01          10.56
   0.04767              -44.08          8.646          67.42          62.33         -8.612         -13.12         -118.5           -2.6         -129.2          20.02          10.57
   0.06357              -44.08           8.65          67.41          62.33         -8.613         -13.12         -118.5         -2.594         -129.2          20.03          10.58
   0.07946              -44.07          8.655           67.4          62.33         -8.615         -13.11         -118.4         -2.589         -129.2          20.04          10.58
   0.09535              -44.07          8.659          67.39          62.33         -8.616         -13.11         -118.4         -2.582         -129.2          20.05          10.59
    0.1112              -44.06          8.664          67.38          62.33         -8.618          -13.1         -118.3         -2.576         -129.2          20.06           10.6
    0.1271              -44.06           8.67          67.36          62.33          -8.62          -13.1         -118.2         -2.569         -129.2          20.08           10.6
     0.143              -44.05          8.676          67.35          62.33         -8.622         -13.09         -118.2         -2.561         -129.1          20.09          10.61
    0.1589              -44.04          8.682          67.34          62.34         -8.624         -13.09         -118.1         -2.553         -129.1          20.11          10.62
    0.1748              -44.04          8.689          67.32          62.34         -8.626         -13.08         -118.0         -2.544         -129.1          20.12          10.63
    0.1907              -44.03          8.696           67.3          62.34         -8.629         -13.07         -117.9         -2.535         -129.1          20.14          10.64
    0.2066              -44.02          8.704          67.29          62.34         -8.631         -13.06         -117.8         -2.524         -129.1          20.16          10.65
    0.2225              -44.01          8.712          67.27          62.35         -8.634         -13.05         -117.8         -2.513         -129.1          20.18          10.67
    0.2384               -44.0          8.721          67.25          62.35         -8.637         -13.04         -117.6         -2.501         -129.1           20.2          10.68
    0.2543              -43.99          8.731          67.22          62.35         -8.641         -13.03         -117.5         -2.488         -129.1          20.23          10.69
    0.2702              -43.98          8.742           67.2          62.36         -8.645         -13.02         -117.4         -2.474         -129.1          20.26          10.71
     0.286              -43.97          8.754          67.17          62.36         -8.649         -13.01         -117.3         -2.459         -129.1          20.29          10.73
    0.3019              -43.96          8.767          67.14          62.36         -8.653         -12.99         -117.1         -2.442         -129.1          20.32          10.75
    0.3178              -43.94          8.781          67.11          62.37         -8.658         -12.98         -116.9         -2.423         -129.1          20.35          10.77
    0.3337              -43.93          8.797          67.08          62.37         -8.663         -12.96         -116.8         -2.402         -129.1          20.39          10.79
    0.3496              -43.91          8.814          67.04          62.38         -8.669         -12.94         -116.6          -2.38         -129.1          20.43          10.82
    0.3655              -43.89          8.834          66.99          62.38         -8.676         -12.92         -116.3         -2.355         -129.0          20.48          10.85
    0.3814              -43.87          8.855          66.95          62.39         -8.683          -12.9         -116.1         -2.327         -129.0          20.54          10.88
    0.3973              -43.84          8.879          66.89           62.4         -8.691         -12.87         -115.8         -2.295         -129.0          20.59          10.91
    0.4132              -43.81          8.906          66.83          62.41           -8.7         -12.84         -115.5         -2.261         -129.0          20.66          10.95
    0.4291              -43.78          8.936          66.76          62.42         -8.711         -12.81         -115.1         -2.221         -129.0          20.74           11.0
     0.445              -43.75           8.97          66.69          62.43         -8.722         -12.78         -114.7         -2.177         -129.0          20.82          11.05
    0.4609              -43.71          9.008           66.6          62.44         -8.735         -12.73         -114.3         -2.126         -128.9          20.92           11.1
    0.4767              -43.66          9.052           66.5          62.45          -8.75         -12.69         -113.8         -2.069         -128.9          21.02          11.17
    0.4926              -43.61          9.103          66.39          62.47         -8.768         -12.63         -113.2         -2.003         -128.9          21.15          11.24
